HIERARCHY
ROOT Hips
{
	OFFSET 0.00000 0.00000 0.00000
	CHANNELS 6 Xposition Yposition Zposition Zrotation Yrotation Xrotation 
	JOINT LHipJoint
	{
		OFFSET 0 0 0
		CHANNELS 3 Zrotation Yrotation Xrotation
		JOINT LeftHip
		{
			OFFSET 1.66553 -1.82942 0.76350
			CHANNELS 3 Zrotation Yrotation Xrotation
			JOINT LeftKnee
			{
				OFFSET 2.41740 -6.64177 0.00000
				CHANNELS 3 Zrotation Yrotation Xrotation
				JOINT LeftAnkle
				{
					OFFSET 2.71614 -7.46254 0.00000
					CHANNELS 3 Zrotation Yrotation Xrotation
					JOINT LeftToe
					{
						OFFSET 0.08005 -0.21993 1.82495
						CHANNELS 3 Zrotation Yrotation Xrotation
						End Site
						{
							OFFSET 0.00000 -0.00000 0.93441
						}
					}
				}
			}
		}
	}
	JOINT RHipJoint
	{
		OFFSET 0 0 0
		CHANNELS 3 Zrotation Yrotation Xrotation
		JOINT RightHip
		{
			OFFSET -1.63725 -1.82942 0.76350
			CHANNELS 3 Zrotation Yrotation Xrotation
			JOINT RightKnee
			{
				OFFSET -2.40538 -6.60872 0.00000
				CHANNELS 3 Zrotation Yrotation Xrotation
				JOINT RightAnkle
				{
					OFFSET -2.73312 -7.50919 0.00000
					CHANNELS 3 Zrotation Yrotation Xrotation
					JOINT RightToe
					{
						OFFSET -0.15567 -0.42769 1.93504
						CHANNELS 3 Zrotation Yrotation Xrotation
						End Site
						{
							OFFSET -0.00000 -0.00000 1.00100
						}
					}
				}
			}
		}
	}
	JOINT lowerback
	{
		OFFSET 0 0 0
		CHANNELS 3 Zrotation Yrotation Xrotation
		JOINT Chest
		{
			OFFSET 0.00326 2.30118 -0.13017
			CHANNELS 3 Zrotation Yrotation Xrotation
			JOINT Chest2
			{
				OFFSET 0.02887 2.30677 0.00834
				CHANNELS 3 Zrotation Yrotation Xrotation
				JOINT lowerneck
				{
					OFFSET 0 0 0
					CHANNELS 3 Zrotation Yrotation Xrotation
					JOINT Neck
					{
						OFFSET 0.12946 1.68326 0.00713
						CHANNELS 3 Zrotation Yrotation Xrotation
						JOINT Head
						{
							OFFSET -0.24364 1.67243 -0.16079
							CHANNELS 3 Zrotation Yrotation Xrotation
							End Site
							{
								OFFSET -0.09229 1.70819 -0.06383
							}
						}
					}
				}
				JOINT LeftCollar
				{
					OFFSET 0 0 0
					CHANNELS 3 Zrotation Yrotation Xrotation
					JOINT LeftShoulder
					{
						OFFSET 3.28104 0.69567 -0.00556
CHANNELS 3 Zrotation Xrotation Yrotation
						JOINT LeftElbow
						{
OFFSET 0 -5.707060 -0.000000
CHANNELS 3 Zrotation Xrotation Yrotation
							JOINT LeftWrist
							{
OFFSET 0 -3.332430 0.000000
CHANNELS 3 Zrotation Xrotation Yrotation
								JOINT lhand
								{
									OFFSET 0 0 0
CHANNELS 3 Zrotation Xrotation Yrotation
									JOINT LFingers
									{
OFFSET 0 -0.792690 0.000000
CHANNELS 3 Zrotation Xrotation Yrotation
										End Site
										{
OFFSET 0 -0.639090 0.000000
										}
									}
								}
								JOINT LThumb
								{
OFFSET 0 0.000000 0.000000
CHANNELS 3 Zrotation Xrotation Yrotation
									End Site
									{
OFFSET 0 -0.648840 0.648840
									}
								}
							}
						}
					}
				}
				JOINT RightCollar
				{
					OFFSET 0 0 0
					CHANNELS 3 Zrotation Yrotation Xrotation
					JOINT RightShoulder
					{
						OFFSET -3.40955 0.64424 0.14010
CHANNELS 3 Zrotation Xrotation Yrotation
						JOINT RightElbow
						{
OFFSET 0 -5.881760 -0.000000
CHANNELS 3 Zrotation Xrotation Yrotation
							JOINT RightWrist
							{
OFFSET 0 -3.281560 0.000000
CHANNELS 3 Zrotation Xrotation Yrotation
								JOINT rhand
								{
									OFFSET 0 0 0
CHANNELS 3 Zrotation Xrotation Yrotation
									JOINT RFingers
									{
OFFSET 0 -0.863130 0.000000
CHANNELS 3 Zrotation Xrotation Yrotation
										End Site
										{
OFFSET 0 -0.695870 0.000000
										}
									}
								}
								JOINT RThumb
								{
OFFSET 0 0.000000 0.000000
CHANNELS 3 Zrotation Xrotation Yrotation
									End Site
									{
OFFSET 0 -0.706500 0.706500
									}
								}
							}
						}
					}
				}
			}
		}
	}
}
MOTION
Frames: 7
Frame Time: 0.008333333333333333
18.740100 17.245800 -14.752000 -2.231800 -4.987400 -2.967900 0.000000 0.000000 0.000000 -18.646700 -1.119000 3.711700 2.387800 9.631000 27.789900 2.537500 -2.769500 -29.452400 1.127600 -6.744700 -18.961200 0.000000 0.000000 0.000000 23.710800 -7.368500 -0.025800 -2.370600 -9.598800 27.687000 -0.874200 21.270600 -21.074500 -3.293100 -11.155100 32.804700 1.791800 -2.771300 -8.991900 -1.263600 -3.881800 -13.093200 -2.370500 -2.198900 -9.126800 14.773700 8.135600 -13.424200 -15.936800 9.611700 2.986500 -6.571500 4.159000 4.628900 -0.000000 0.000000 0.000000 87.327300 11.883700 15.876900 67.196800 -57.941000 40.388400 -2.635500 -97.069100 -8.577600 0.000000 0.000000 0.000000 -7.125000 0.000000 0.000000 -24.768300 37.386000 -5.021600 -0.000000 0.000000 0.000000 -78.609300 8.990900 -54.345200 -47.777900 -52.059000 -24.410500 -15.053500 -49.096900 -26.762600 0.000000 0.000000 0.000000 7.125000 0.000000 -0.000000 8.952500 2.694800 8.629100
18.753734 17.277266 -14.811965 -2.329393 -5.157217 -2.866465 0.000000 0.000000 0.000000 -18.446393 -0.786654 3.416692 2.327834 9.517949 27.429326 2.482701 -1.622872 -29.398580 1.916739 -8.690198 -24.831075 0.000000 0.000000 0.000000 23.819505 -6.761962 -0.289211 -2.378671 -9.613917 27.735212 -0.735628 21.197743 -20.149698 -3.279522 -11.134219 32.734016 1.638431 -3.061181 -9.250852 -2.070213 -4.321915 -13.159970 -3.160938 -2.458876 -9.154521 16.242789 7.645515 -12.121257 -16.948110 8.522753 -0.937215 -7.319266 3.673845 3.206347 0.000000 0.000000 0.000000 80.802605 11.624587 5.783880 50.147540 -53.045002 26.294593 -4.396607 -91.647915 -9.773169 0.000000 0.000000 0.000000 -7.125000 0.000000 0.000000 -26.553792 38.325883 -4.773021 0.000000 0.000000 0.000000 -76.084940 7.455877 -50.945498 -20.559797 -31.284663 -5.831843 -12.595580 -29.189674 -24.968081 0.000000 0.000000 0.000000 7.125000 0.000000 0.000000 10.327586 4.822688 9.582765
18.756812 17.299070 -14.922404 -2.987961 -6.567886 -2.848924 0.000000 0.000000 0.000000 -17.882917 -0.748781 3.268117 2.336496 9.534373 27.481574 2.426228 -0.778873 -29.285524 1.795756 -8.426992 -24.018774 0.000000 0.000000 0.000000 24.447086 -6.439763 -0.600469 -2.356317 -9.571775 27.600827 -0.533588 21.730317 -19.102084 -3.352535 -11.244822 33.110183 1.664145 -2.810453 -8.534389 -2.454849 -4.016996 -12.819031 -3.554736 -2.329598 -9.182631 16.195659 7.342715 -13.084391 -17.177074 7.886036 -1.763759 -7.440315 3.311440 3.024822 0.000000 0.000000 0.000000 74.948944 8.926997 5.107663 33.486129 -43.695694 13.758413 -3.615671 -88.304335 -12.102812 0.000000 0.000000 0.000000 -7.125000 0.000000 0.000000 -26.764753 40.485449 -3.248951 0.000000 0.000000 0.000000 -70.950176 5.012463 -75.821708 -10.570783 -17.627321 -1.643626 -10.664641 -7.061488 -21.511715 0.000000 0.000000 0.000000 7.125000 0.000000 0.000000 11.412053 8.471836 9.807145
18.722774 17.350521 -15.004514 -3.666267 -8.651695 -1.558769 0.000000 0.000000 0.000000 -17.550579 -1.359069 2.286608 2.320925 9.504718 27.387307 2.301087 2.183564 -29.524669 2.157197 -9.184911 -26.376370 0.000000 0.000000 0.000000 25.278349 -5.148602 -1.731200 -2.269314 -9.405848 27.073184 -0.089911 22.828331 -16.735476 -3.804921 -11.894233 35.361520 1.107319 -2.451451 -8.012353 -2.230999 -3.525168 -12.692440 -2.982689 -2.021240 -9.230076 15.290271 8.232868 -15.211747 -16.814926 8.974150 -1.106966 -7.001404 3.750341 3.670912 0.000000 0.000000 0.000000 72.733772 8.036001 10.611446 22.438951 -33.465530 6.828169 -2.811355 -84.656434 -16.303032 0.000000 0.000000 0.000000 -7.125000 0.000000 0.000000 -27.815563 44.314024 -0.506724 0.000000 0.000000 0.000000 -64.064905 9.817775 -69.930831 -9.889782 -16.566909 -1.443361 -9.156257 -26.315814 -17.880923 0.000000 0.000000 0.000000 7.125000 0.000000 0.000000 12.369988 12.193166 9.713068
18.708895 17.455059 -15.057936 -3.184639 -10.515995 0.423239 0.000000 0.000000 0.000000 -18.741059 -2.926580 1.651759 2.059389 8.988685 25.760067 2.063347 4.582226 -29.080641 1.863603 -8.575626 -24.476847 0.000000 0.000000 0.000000 24.446316 -3.789216 -4.625301 -2.429027 -9.707668 28.035243 0.532198 24.424328 -13.395202 -3.748669 -11.817923 35.091428 0.784438 -3.041473 -7.474558 -2.973983 -4.385659 -12.498801 -3.564542 -2.473602 -9.428799 16.572310 8.556083 -14.779026 -16.176801 9.044084 -2.565309 -7.018133 3.825214 3.186389 0.000000 0.000000 0.000000 77.999382 11.498362 21.768203 17.803741 -27.904620 4.457276 -0.806101 -80.577639 -21.111696 0.000000 0.000000 0.000000 -7.125000 0.000000 0.000000 -28.428969 48.828301 2.897320 0.000000 0.000000 0.000000 -63.094340 11.331296 -78.878982 -9.461384 -15.892595 -1.323614 -8.939659 -27.317288 -13.178648 0.000000 0.000000 0.000000 7.125000 0.000000 0.000000 12.643247 16.842204 8.652004
18.699487 17.690091 -15.139432 -4.154148 -12.273446 1.658554 0.000000 0.000000 0.000000 -18.006703 -3.615585 0.899462 1.929020 8.716571 24.912681 1.168003 8.183741 -24.896410 2.185125 -9.239482 -26.548783 0.000000 0.000000 0.000000 25.102448 -1.433890 -6.272514 -2.512133 -9.859953 28.524408 1.395066 23.949466 -4.650805 -4.381596 -12.651520 38.077732 1.517374 -3.471422 -4.676709 -2.457666 -4.971599 -12.467186 -3.224189 -2.807964 -11.096234 16.119431 7.483779 -13.358965 -16.512788 7.789114 -3.704979 -7.232374 3.267502 2.436009 0.000000 0.000000 0.000000 85.826974 15.666181 30.387176 15.567953 -24.931291 3.461881 3.938277 -78.436005 -22.361069 0.000000 0.000000 0.000000 -7.125000 0.000000 0.000000 -24.811209 50.658216 3.656709 0.000000 0.000000 0.000000 -70.683536 16.195155 -78.951747 -9.693232 -16.258282 -1.387794 -11.722042 -35.837051 -16.524532 0.000000 0.000000 0.000000 7.125000 0.000000 0.000000 10.696236 13.333779 8.086203
18.729764 18.236811 -15.245530 -3.613151 -14.996682 2.592462 0.000000 0.000000 0.000000 -18.334869 -2.490740 -1.544892 1.929353 8.717415 24.915211 0.332252 7.959474 -16.557380 0.286250 -3.439380 -9.504588 0.000000 0.000000 0.000000 23.272292 -1.023599 -9.199189 -2.482292 -9.805618 28.349457 1.213582 19.517652 11.810109 -5.559346 -13.986051 43.184184 1.144986 -4.034395 -2.828559 -2.306289 -5.741747 -11.893206 -2.688982 -3.128826 -11.531738 16.010209 7.022112 -12.914317 -16.270912 7.079960 -5.188821 -7.231197 2.939507 1.800558 0.000000 0.000000 0.000000 94.914420 20.867628 38.306793 14.852089 -23.939626 3.165664 9.533362 -74.439391 -20.743314 0.000000 0.000000 0.000000 -7.125000 0.000000 0.000000 -18.809117 50.026445 2.406063 0.000000 0.000000 0.000000 -80.501519 19.447515 -79.509529 -10.625208 -17.711193 -1.660300 -12.231850 -35.486081 -17.290654 0.000000 0.000000 0.000000 7.125000 0.000000 0.000000 10.359238 12.524895 8.000987
